<svg width="8" height="10" viewBox="0 0 8 10" fill="none" xmlns="http://www.w3.org/2000/svg">
<g id="Group 62">
<path id="Vector" d="M4.00004 4.0625C4.08845 4.0625 4.17323 4.09542 4.23574 4.15403C4.29826 4.21263 4.33337 4.29212 4.33337 4.375V5.3125H5.33337C5.42178 5.3125 5.50656 5.34542 5.56908 5.40403C5.63159 5.46263 5.66671 5.54212 5.66671 5.625C5.66671 5.70788 5.63159 5.78737 5.56908 5.84597C5.50656 5.90458 5.42178 5.9375 5.33337 5.9375H4.33337V6.875C4.33337 6.95788 4.29826 7.03737 4.23574 7.09597C4.17323 7.15458 4.08845 7.1875 4.00004 7.1875C3.91164 7.1875 3.82685 7.15458 3.76434 7.09597C3.70183 7.03737 3.66671 6.95788 3.66671 6.875V5.9375H2.66671C2.5783 5.9375 2.49352 5.90458 2.43101 5.84597C2.36849 5.78737 2.33337 5.70788 2.33337 5.625C2.33337 5.54212 2.36849 5.46263 2.43101 5.40403C2.49352 5.34542 2.5783 5.3125 2.66671 5.3125H3.66671V4.375C3.66671 4.29212 3.70183 4.21263 3.76434 4.15403C3.82685 4.09542 3.91164 4.0625 4.00004 4.0625Z" fill="#333399"/>
<path id="Vector_2" d="M8 2.8125V8.75C8 9.08152 7.85952 9.39946 7.60948 9.63388C7.35943 9.8683 7.02029 10 6.66667 10H1.33333C0.979711 10 0.640573 9.8683 0.390524 9.63388C0.140476 9.39946 0 9.08152 0 8.75V1.25C0 0.918479 0.140476 0.600537 0.390524 0.366117C0.640573 0.131696 0.979711 0 1.33333 0L5 0L8 2.8125ZM6 2.8125C5.73478 2.8125 5.48043 2.71373 5.29289 2.53791C5.10536 2.3621 5 2.12364 5 1.875V0.625H1.33333C1.15652 0.625 0.986953 0.690848 0.861929 0.808058C0.736905 0.925268 0.666667 1.08424 0.666667 1.25V8.75C0.666667 8.91576 0.736905 9.07473 0.861929 9.19194C0.986953 9.30915 1.15652 9.375 1.33333 9.375H6.66667C6.84348 9.375 7.01305 9.30915 7.13807 9.19194C7.2631 9.07473 7.33333 8.91576 7.33333 8.75V2.8125H6Z" fill="#333399"/>
</g>
</svg>
