<svg width="16" height="10" viewBox="0 0 16 10" fill="none" xmlns="http://www.w3.org/2000/svg">
<path id="Vector" fill-rule="evenodd" clip-rule="evenodd" d="M16 5C16 5.14732 15.9398 5.28861 15.8326 5.39278C15.7255 5.49695 15.5802 5.55548 15.4286 5.55548L1.95175 5.55548L5.5481 9.05054C5.65539 9.15485 5.71566 9.29631 5.71566 9.44382C5.71566 9.59133 5.65539 9.73279 5.5481 9.8371C5.4408 9.9414 5.29528 10 5.14355 10C4.99182 10 4.8463 9.9414 4.739 9.8371L0.167868 5.39328C0.114656 5.34168 0.0724387 5.28038 0.0436329 5.21289C0.0148272 5.14541 4.30726e-07 5.07306 4.37114e-07 5C4.43501e-07 4.92693 0.0148272 4.85459 0.043633 4.7871C0.0724387 4.71962 0.114656 4.65832 0.167868 4.60672L4.739 0.1629C4.8463 0.0585966 4.99182 -9.62366e-07 5.14355 -9.49101e-07C5.29529 -9.35836e-07 5.4408 0.0585966 5.5481 0.1629C5.65539 0.267204 5.71566 0.40867 5.71566 0.556178C5.71566 0.703687 5.65539 0.845152 5.5481 0.949456L1.95175 4.44452L15.4286 4.44452C15.5802 4.44452 15.7255 4.50305 15.8326 4.60722C15.9398 4.71139 16 4.85268 16 5Z" fill="#0066CC"/>
</svg>
