<svg width="8" height="10" viewBox="0 0 8 10" fill="none" xmlns="http://www.w3.org/2000/svg">
<g id="Group 50">
<g id="Group 96">
<path id="Vector" fill-rule="evenodd" clip-rule="evenodd" d="M5.63083 4.46632C5.65744 4.49535 5.67855 4.52983 5.69296 4.5678C5.70736 4.60576 5.71477 4.64647 5.71477 4.68757C5.71477 4.72867 5.70736 4.76938 5.69296 4.80734C5.67855 4.84531 5.65744 4.87979 5.63083 4.90882L3.91655 6.78382C3.89001 6.81292 3.85848 6.83601 3.82377 6.85177C3.78906 6.86752 3.75184 6.87563 3.71426 6.87563C3.67668 6.87563 3.63947 6.86752 3.60476 6.85177C3.57005 6.83601 3.53852 6.81292 3.51198 6.78382L2.65483 5.84632C2.62827 5.81727 2.6072 5.78277 2.59282 5.74481C2.57844 5.70685 2.57104 5.66616 2.57104 5.62507C2.57104 5.58398 2.57844 5.54329 2.59282 5.50533C2.6072 5.46737 2.62827 5.43288 2.65483 5.40382C2.70848 5.34514 2.78125 5.31218 2.85712 5.31218C2.89469 5.31218 2.93189 5.32027 2.9666 5.33599C3.0013 5.35172 3.03284 5.37477 3.05941 5.40382L3.71426 6.1207L5.22626 4.46632C5.2528 4.43722 5.28433 4.41413 5.31904 4.39837C5.35376 4.38262 5.39097 4.37451 5.42855 4.37451C5.46613 4.37451 5.50334 4.38262 5.53805 4.39837C5.57276 4.41413 5.60429 4.43722 5.63083 4.46632Z" fill="#0066CC"/>
<path id="Vector_2" d="M1.71429 0.9375H1.14286C0.839753 0.9375 0.549062 1.0692 0.334735 1.30362C0.120408 1.53804 0 1.85598 0 2.1875V8.75C0 9.08152 0.120408 9.39946 0.334735 9.63388C0.549062 9.8683 0.839753 10 1.14286 10H6.85714C7.16025 10 7.45094 9.8683 7.66527 9.63388C7.87959 9.39946 8 9.08152 8 8.75V2.1875C8 1.85598 7.87959 1.53804 7.66527 1.30362C7.45094 1.0692 7.16025 0.9375 6.85714 0.9375H6.28571V1.5625H6.85714C7.0087 1.5625 7.15404 1.62835 7.2612 1.74556C7.36837 1.86277 7.42857 2.02174 7.42857 2.1875V8.75C7.42857 8.91576 7.36837 9.07473 7.2612 9.19194C7.15404 9.30915 7.0087 9.375 6.85714 9.375H1.14286C0.991305 9.375 0.84596 9.30915 0.738796 9.19194C0.631633 9.07473 0.571429 8.91576 0.571429 8.75V2.1875C0.571429 2.02174 0.631633 1.86277 0.738796 1.74556C0.84596 1.62835 0.991305 1.5625 1.14286 1.5625H1.71429V0.9375Z" fill="#0066CC"/>
<path id="Vector_3" d="M4.85719 0.625C4.93297 0.625 5.00564 0.657924 5.05923 0.716529C5.11281 0.775134 5.14291 0.85462 5.14291 0.9375V1.5625C5.14291 1.64538 5.11281 1.72487 5.05923 1.78347C5.00564 1.84208 4.93297 1.875 4.85719 1.875H3.14291C3.06713 1.875 2.99446 1.84208 2.94088 1.78347C2.8873 1.72487 2.8572 1.64538 2.8572 1.5625V0.9375C2.8572 0.85462 2.8873 0.775134 2.94088 0.716529C2.99446 0.657924 3.06713 0.625 3.14291 0.625H4.85719ZM3.14291 0C2.91558 0 2.69756 0.098772 2.53682 0.274587C2.37607 0.450403 2.28577 0.68886 2.28577 0.9375V1.5625C2.28577 1.81114 2.37607 2.0496 2.53682 2.22541C2.69756 2.40123 2.91558 2.5 3.14291 2.5H4.85719C5.08452 2.5 5.30254 2.40123 5.46329 2.22541C5.62403 2.0496 5.71434 1.81114 5.71434 1.5625V0.9375C5.71434 0.68886 5.62403 0.450403 5.46329 0.274587C5.30254 0.098772 5.08452 0 4.85719 0L3.14291 0Z" fill="#0066CC"/>
</g>
</g>
</svg>
