<svg width="17" height="16" viewBox="0 0 17 16" fill="none" xmlns="http://www.w3.org/2000/svg">
<path id="Vector" d="M12.6453 0.146887C12.6917 0.100326 12.7469 0.0633849 12.8076 0.0381796C12.8684 0.0129742 12.9335 0 12.9993 0C13.065 0 13.1301 0.0129742 13.1909 0.0381796C13.2516 0.0633849 13.3068 0.100326 13.3532 0.146887L16.3531 3.14676C16.3997 3.1932 16.4366 3.24837 16.4618 3.30912C16.487 3.36986 16.5 3.43498 16.5 3.50074C16.5 3.56651 16.487 3.63162 16.4618 3.69237C16.4366 3.75311 16.3997 3.80828 16.3531 3.85473L6.35355 13.8543C6.30557 13.9019 6.24842 13.9394 6.18556 13.9643L1.18578 15.9642C1.09492 16.0006 0.99538 16.0095 0.899508 15.9898C0.803636 15.9701 0.715644 15.9228 0.64644 15.8536C0.577237 15.7844 0.529866 15.6964 0.510199 15.6005C0.490532 15.5046 0.499435 15.4051 0.535805 15.3142L2.53572 10.3144C2.56064 10.2516 2.59806 10.1944 2.64571 10.1465L12.6453 0.146887ZM11.7063 2.50078L13.9992 4.79368L15.2922 3.50074L12.9993 1.20784L11.7063 2.50078ZM13.2922 5.50065L10.9993 3.20775L4.49963 9.70747V10.0005H4.99961C5.13221 10.0005 5.25938 10.0531 5.35315 10.1469C5.44691 10.2407 5.49959 10.3678 5.49959 10.5004V11.0004H5.99957C6.13217 11.0004 6.25934 11.0531 6.3531 11.1469C6.44687 11.2406 6.49954 11.3678 6.49954 11.5004V12.0004H6.79253L13.2922 5.50065ZM3.53167 10.6754L3.42568 10.7814L1.89775 14.6023L5.71858 13.0743L5.82457 12.9683C5.7292 12.9327 5.64697 12.8688 5.5889 12.7852C5.53082 12.7015 5.49966 12.6022 5.49959 12.5003V12.0004H4.99961C4.86701 12.0004 4.73984 11.9477 4.64607 11.8539C4.55231 11.7602 4.49963 11.633 4.49963 11.5004V11.0004H3.99965C3.89784 11.0003 3.79847 10.9692 3.71484 10.9111C3.63121 10.853 3.56731 10.7708 3.53167 10.6754Z" fill="white"/>
</svg>
