<svg width="480" height="350" viewBox="0 0 480 350" fill="none" xmlns="http://www.w3.org/2000/svg">
<path d="M480 307.575H0V307.845H480V307.575Z" fill="#EBEBEB"/>
<path d="M227.52 265.676H42.1537C40.7015 265.673 39.3097 265.107 38.2838 264.101C37.2579 263.096 36.6817 261.733 36.6817 260.312V5.31728C36.6943 3.90437 37.2761 2.5534 38.3007 1.55781C39.3252 0.56222 40.7098 0.00242038 42.1537 0H227.52C228.974 0 230.368 0.565161 231.396 1.57115C232.424 2.57714 233.002 3.94156 233.002 5.36425V260.312C233.002 261.734 232.424 263.099 231.396 264.105C230.368 265.111 228.974 265.676 227.52 265.676ZM42.1537 0.18789C40.7652 0.190379 39.4344 0.731891 38.4535 1.69357C37.4726 2.65525 36.9217 3.9585 36.9217 5.31728V260.312C36.9217 261.67 37.4726 262.974 38.4535 263.935C39.4344 264.897 40.7652 265.439 42.1537 265.441H227.52C228.91 265.439 230.241 264.897 231.224 263.936C232.206 262.975 232.759 261.671 232.762 260.312V5.31728C232.759 3.95764 232.206 2.6544 231.224 1.69299C230.241 0.731586 228.91 0.190374 227.52 0.18789H42.1537Z" fill="#EBEBEB"/>
<path d="M435.178 265.676H249.802C248.348 265.673 246.956 265.108 245.928 264.102C244.901 263.097 244.322 261.734 244.32 260.312V5.31728C244.335 3.90351 244.919 2.55255 245.945 1.55722C246.971 0.561892 248.357 0.00239399 249.802 0H435.178C436.62 0.00488935 438.002 0.565782 439.024 1.56111C440.047 2.55643 440.627 3.90599 440.64 5.31728V260.312C440.64 261.731 440.065 263.093 439.041 264.098C438.017 265.104 436.628 265.671 435.178 265.676ZM249.802 0.18789C248.412 0.190374 247.08 0.731586 246.098 1.69299C245.116 2.6544 244.562 3.95764 244.56 5.31728V260.312C244.562 261.671 245.116 262.975 246.098 263.936C247.08 264.897 248.412 265.439 249.802 265.441H435.178C436.567 265.439 437.899 264.897 438.881 263.936C439.864 262.975 440.417 261.671 440.419 260.312V5.31728C440.417 3.95764 439.864 2.6544 438.881 1.69299C437.899 0.731586 436.567 0.190374 435.178 0.18789H249.802Z" fill="#EBEBEB"/>
<path d="M192.422 316.519H167.462V316.789H192.422V316.519Z" fill="#EBEBEB"/>
<path d="M102.298 313.972H50.3616V314.242H102.298V313.972Z" fill="#EBEBEB"/>
<path d="M166.502 325.246H141.235V325.516H166.502V325.246Z" fill="#EBEBEB"/>
<path d="M285.178 323.667H247.901V323.937H285.178V323.667Z" fill="#EBEBEB"/>
<path d="M303.984 323.667H293.722V323.937H303.984V323.667Z" fill="#EBEBEB"/>
<path d="M431.913 319.703H379.536V319.973H431.913V319.703Z" fill="#EBEBEB"/>
<path d="M216.288 34.0549H73.8432V181.153H216.288V34.0549Z" fill="#E6E6E6"/>
<path d="M231.561 29.292H64.6271C64.2503 29.292 63.8889 29.4385 63.6225 29.6992C63.356 29.9599 63.2063 30.3136 63.2063 30.6824C63.2063 30.8645 63.2431 31.0448 63.3147 31.213C63.3862 31.3812 63.491 31.5338 63.6231 31.6622C63.7551 31.7905 63.9118 31.8921 64.0841 31.9609C64.2565 32.0298 64.441 32.0646 64.6271 32.0633H231.561C231.936 32.0633 232.295 31.9178 232.559 31.6589C232.824 31.3999 232.973 31.0486 232.973 30.6824C232.974 30.5002 232.938 30.3196 232.868 30.151C232.798 29.9824 232.694 29.829 232.563 29.6998C232.432 29.5705 232.276 29.468 232.104 29.398C231.932 29.328 231.748 29.292 231.561 29.292Z" fill="#E6E6E6"/>
<path d="M222.346 34.0549H76.6754V181.153H222.346V34.0549Z" fill="#F0F0F0"/>
<path d="M216.288 181.154H73.8432V186.649H216.288V181.154Z" fill="#E6E6E6"/>
<path d="M232.406 181.154H86.7361V186.649H232.406V181.154Z" fill="#F0F0F0"/>
<path d="M213.878 172.877V42.3408L85.1326 42.3408V172.877H213.878Z" fill="#FAFAFA"/>
<path d="M114.355 172.877L164.026 42.3314H187.469L137.808 172.877H114.355Z" fill="white"/>
<path d="M142.838 172.877L192.509 42.3314H201.648L151.978 172.877H142.838Z" fill="white"/>
<path d="M213.878 172.868V42.3314H212.803V172.868H213.878Z" fill="#E6E6E6"/>
<g opacity="0.6">
<path d="M81.6385 159.687H63.7538L73.3921 26.8213H91.2769L81.6385 159.687Z" fill="#F0F0F0"/>
<path d="M88.608 159.687H74.6688L84.3072 26.8213H98.2464L88.608 159.687Z" fill="#E6E6E6"/>
<path d="M99.5233 159.687H81.6385L91.2769 26.8213H109.162L99.5233 159.687Z" fill="#F0F0F0"/>
<path d="M106.493 159.687H92.5535L102.202 26.8213H116.131L106.493 159.687Z" fill="#E6E6E6"/>
<path d="M117.408 159.687H99.5233L109.162 26.8213H127.056L117.408 159.687Z" fill="#F0F0F0"/>
</g>
<g opacity="0.6">
<path d="M219.389 159.687H229.498L224.054 26.8213H213.946L219.389 159.687Z" fill="#F0F0F0"/>
<path d="M215.453 159.687H223.325L217.882 26.8213H210L215.453 159.687Z" fill="#E6E6E6"/>
<path d="M209.28 159.687H219.389L213.946 26.8213H203.837L209.28 159.687Z" fill="#F0F0F0"/>
<path d="M205.344 159.687H213.216L207.773 26.8213H199.891L205.344 159.687Z" fill="#E6E6E6"/>
<path d="M199.171 159.687H209.28L203.837 26.8213H193.728L199.171 159.687Z" fill="#F0F0F0"/>
</g>
<path d="M409.594 26.8213H311.088V154.981H409.594V26.8213Z" fill="#E6E6E6"/>
<path d="M417.072 26.8213H314.16V154.981H417.072V26.8213Z" fill="#F5F5F5"/>
<path d="M327.493 32.0538L318.333 142.979L403.725 149.732L412.885 38.8065L327.493 32.0538Z" fill="white"/>
<path d="M410.775 38.6384L401.615 149.564L403.72 149.73L412.88 38.8048L410.775 38.6384Z" fill="#E6E6E6"/>
<path d="M422.506 202.854H367.488V307.574H422.506V202.854Z" fill="#F5F5F5"/>
<path d="M422.506 202.854H417.965V307.574H422.506V202.854Z" fill="#F0F0F0"/>
<path d="M245.05 250.147L371.731 250.147V205.833H245.05V250.147Z" fill="#E6E6E6"/>
<path d="M251.146 210.699L422.496 210.699V202.845L251.146 202.845V210.699Z" fill="#F0F0F0"/>
<path d="M251.155 202.854H196.138V307.574H251.155V202.854Z" fill="#F5F5F5"/>
<path d="M198.125 236.215H198.374C201.886 236.215 205.253 237.579 207.735 240.009C210.218 242.439 211.613 245.734 211.613 249.17V307.575H184.886V249.17C184.886 245.734 186.281 242.439 188.764 240.009C191.247 237.579 194.614 236.215 198.125 236.215Z" fill="#E6E6E6"/>
<path d="M251.155 202.854H246.614V307.574H251.155V202.854Z" fill="#F0F0F0"/>
<path d="M313.075 202.854H301.209L304.089 180.242H315.965L313.075 202.854Z" fill="#F0F0F0"/>
<path d="M315.706 202.854H303.831L306.72 180.242H318.586L315.706 202.854Z" fill="#F5F5F5"/>
<path d="M317.146 191.543H305.28L306.72 180.242H318.586L317.146 191.543Z" fill="#F0F0F0"/>
<path d="M273.533 188.829H357.494C357.659 188.829 357.822 188.794 357.972 188.728C358.122 188.662 358.256 188.565 358.365 188.444C358.474 188.323 358.555 188.181 358.604 188.027C358.652 187.873 358.667 187.711 358.646 187.551L352.176 136.896C352.141 136.621 352.005 136.368 351.792 136.185C351.58 136.002 351.307 135.9 351.024 135.9H267.062C266.901 135.903 266.742 135.939 266.595 136.005C266.448 136.072 266.317 136.167 266.21 136.285C266.103 136.403 266.021 136.542 265.972 136.692C265.922 136.843 265.904 137.002 265.92 137.159L272.371 187.889C272.421 188.154 272.565 188.394 272.777 188.566C272.99 188.738 273.257 188.831 273.533 188.829Z" fill="#F0F0F0"/>
<path d="M274.781 188.829H358.742C358.907 188.828 359.07 188.794 359.22 188.728C359.37 188.661 359.504 188.565 359.613 188.444C359.722 188.323 359.803 188.181 359.852 188.027C359.9 187.873 359.915 187.711 359.894 187.551L353.424 136.896C353.389 136.621 353.252 136.368 353.04 136.185C352.828 136.002 352.555 135.9 352.272 135.9H268.31C268.145 135.9 267.982 135.935 267.832 136.001C267.681 136.067 267.547 136.164 267.437 136.284C267.327 136.405 267.245 136.547 267.195 136.701C267.146 136.855 267.13 137.017 267.149 137.178L273.6 187.889C273.65 188.158 273.797 188.4 274.013 188.572C274.23 188.744 274.502 188.835 274.781 188.829Z" fill="#F5F5F5"/>
<path d="M357.187 186.01L351.129 138.596C351.118 138.52 351.078 138.45 351.018 138.4C350.958 138.35 350.882 138.323 350.803 138.324H270.163C270.117 138.324 270.071 138.333 270.029 138.351C269.986 138.37 269.948 138.396 269.918 138.43C269.887 138.464 269.863 138.504 269.85 138.547C269.836 138.59 269.831 138.636 269.837 138.681L275.894 186.095C275.906 186.171 275.945 186.241 276.005 186.291C276.065 186.341 276.142 186.368 276.221 186.367H356.861C356.907 186.367 356.953 186.358 356.995 186.34C357.037 186.321 357.075 186.294 357.106 186.261C357.137 186.227 357.16 186.187 357.174 186.144C357.188 186.101 357.192 186.055 357.187 186.01Z" fill="#E6E6E6"/>
<path d="M348.585 186.405L327.274 138.352H308.582L329.894 186.405H348.585Z" fill="#EBEBEB"/>
<path d="M326.294 186.405L304.982 138.352H298.253L319.565 186.405H326.294Z" fill="#EBEBEB"/>
<path d="M326.477 202.854H307.143V202.62C307.143 202.121 307.345 201.643 307.705 201.291C308.065 200.939 308.553 200.741 309.063 200.741H324.557C325.066 200.741 325.555 200.939 325.915 201.291C326.275 201.643 326.477 202.121 326.477 202.62V202.854Z" fill="#F5F5F5"/>
<path d="M309.408 202.854H296.295V202.62C296.295 202.121 296.497 201.643 296.857 201.291C297.217 200.939 297.705 200.741 298.215 200.741H307.479C307.988 200.741 308.476 200.939 308.836 201.291C309.196 201.643 309.399 202.121 309.399 202.62V202.854H309.408Z" fill="#F0F0F0"/>
<path d="M347.866 202.855H288.096L286.483 198.158H340.09L347.866 202.855Z" fill="#F5F5F5"/>
<path d="M294.672 202.855H284.794L283.459 198.158H293.338L294.672 202.855Z" fill="#F0F0F0"/>
<path d="M275.654 202.845H258.643C258.643 201.804 259.066 200.805 259.819 200.069C260.571 199.332 261.592 198.918 262.656 198.918H271.642C272.706 198.918 273.727 199.332 274.479 200.069C275.232 200.805 275.654 201.804 275.654 202.845Z" fill="#F0F0F0"/>
<path d="M85.6512 307.575H102.326L102.326 231.733H85.6512L85.6512 307.575Z" fill="#E0E0E0"/>
<path d="M159.686 307.575H92.2752L83.9424 217.952H151.354L159.686 307.575Z" fill="#E6E6E6"/>
<path d="M163.181 307.575H95.7698L87.4274 217.952H154.848L163.181 307.575Z" fill="#F0F0F0"/>
<path d="M104.986 297.654L98.4866 227.872H145.632L152.122 297.654H104.986Z" fill="white"/>
<path d="M240 350C342.799 350 426.134 345.239 426.134 339.365C426.134 333.492 342.799 328.731 240 328.731C137.201 328.731 53.8657 333.492 53.8657 339.365C53.8657 345.239 137.201 350 240 350Z" fill="#F5F5F5"/>
<path d="M95.11 114.608L94.1505 114.639L94.5681 127.155L95.5276 127.124L95.11 114.608Z" fill="#0066CC"/>
<path d="M94.7503 103.808L93.7908 103.837L93.9976 109.79L94.9572 109.76L94.7503 103.808Z" fill="#0066CC"/>
<path d="M107.712 194.343H290.937C291.917 194.348 292.887 194.158 293.79 193.786C294.692 193.414 295.508 192.867 296.189 192.178C296.87 191.489 297.401 190.672 297.751 189.777C298.1 188.882 298.261 187.926 298.224 186.969L294.144 64.6245C294.063 62.6535 293.21 60.7886 291.762 59.4158C290.315 58.043 288.383 57.2675 286.368 57.2498H103.142C102.162 57.2454 101.192 57.4349 100.289 57.8069C99.3858 58.1789 98.5689 58.7258 97.8874 59.4147C97.2058 60.1036 96.6737 60.9202 96.3229 61.8155C95.9722 62.7108 95.81 63.6663 95.8463 64.6245L99.9263 186.95C100.005 188.925 100.858 190.795 102.307 192.171C103.757 193.548 105.692 194.326 107.712 194.343Z" fill="#0066CC"/>
<path d="M108.298 194.343H291.523C292.503 194.348 293.473 194.158 294.377 193.786C295.28 193.414 296.096 192.867 296.778 192.179C297.46 191.49 297.992 190.673 298.342 189.778C298.693 188.882 298.855 187.927 298.819 186.969L294.72 64.6245C294.636 62.6527 293.782 60.7877 292.332 59.4152C290.883 58.0426 288.951 57.2674 286.934 57.2498H103.728C102.749 57.2453 101.778 57.4349 100.876 57.807C99.9732 58.1791 99.157 58.7262 98.4762 59.4152C97.7954 60.1042 97.2642 60.921 96.9145 61.8163C96.5648 62.7115 96.404 63.6668 96.4415 64.6245L100.522 186.95C100.598 188.924 101.448 190.794 102.896 192.171C104.344 193.547 106.279 194.326 108.298 194.343Z" fill="#0066CC"/>
<path opacity="0.5" d="M108.298 194.343H291.523C292.503 194.348 293.473 194.158 294.377 193.786C295.28 193.414 296.096 192.867 296.778 192.179C297.46 191.49 297.992 190.673 298.342 189.778C298.693 188.882 298.855 187.927 298.819 186.969L294.72 64.6245C294.636 62.6527 293.782 60.7877 292.332 59.4152C290.883 58.0426 288.951 57.2674 286.934 57.2498H103.728C102.749 57.2453 101.778 57.4349 100.876 57.807C99.9732 58.1791 99.157 58.7262 98.4762 59.4152C97.7954 60.1042 97.2642 60.921 96.9145 61.8163C96.5648 62.7115 96.404 63.6668 96.4415 64.6245L100.522 186.95C100.598 188.924 101.448 190.794 102.896 192.171C104.344 193.547 106.279 194.326 108.298 194.343Z" fill="white"/>
<path opacity="0.5" d="M286.493 60.9325H103.258H102.643C97.949 61.3083 98.621 68.2789 103.354 68.2789H286.896C291.619 68.2789 291.83 61.3083 287.107 60.9325C286.906 60.9419 286.694 60.9325 286.493 60.9325Z" fill="#0066CC"/>
<path d="M107.885 64.6245C107.893 64.8435 107.855 65.0617 107.774 65.266C107.694 65.4704 107.572 65.6567 107.416 65.8138C107.26 65.9708 107.073 66.0954 106.866 66.18C106.66 66.2647 106.438 66.3076 106.214 66.3062C105.753 66.3042 105.31 66.1283 104.977 65.8152C104.645 65.5021 104.448 65.0757 104.429 64.6245C104.42 64.4049 104.456 64.1856 104.536 63.9802C104.616 63.7747 104.738 63.5872 104.894 63.4292C105.05 63.2711 105.238 63.1456 105.445 63.0605C105.652 62.9753 105.874 62.9321 106.099 62.9335C106.563 62.9333 107.009 63.1096 107.342 63.4252C107.675 63.7408 107.87 64.1709 107.885 64.6245Z" fill="#FAFAFA"/>
<path d="M113.76 64.6245C113.769 64.8438 113.733 65.0626 113.652 65.2675C113.572 65.4725 113.45 65.6594 113.294 65.8167C113.138 65.9741 112.95 66.0986 112.743 66.1828C112.536 66.2669 112.314 66.3089 112.09 66.3062C111.629 66.3019 111.187 66.1253 110.855 65.8126C110.523 65.5 110.326 65.0749 110.304 64.6245C110.295 64.4049 110.331 64.1856 110.411 63.9802C110.491 63.7747 110.613 63.5872 110.769 63.4292C110.926 63.2711 111.113 63.1456 111.32 63.0605C111.527 62.9753 111.75 62.9321 111.974 62.9335C112.438 62.9333 112.884 63.1096 113.217 63.4252C113.55 63.7408 113.745 64.1709 113.76 64.6245Z" fill="#FAFAFA"/>
<path d="M119.169 65.834C119.827 65.1791 119.799 64.1086 119.107 63.443C118.415 62.7774 117.321 62.7687 116.663 63.4236C116.005 64.0785 116.033 65.149 116.725 65.8146C117.417 66.4802 118.511 66.4889 119.169 65.834Z" fill="#FAFAFA"/>
<path d="M111.85 182.131H287.165C287.52 182.133 287.871 182.066 288.199 181.932C288.526 181.797 288.822 181.6 289.069 181.35C289.316 181.101 289.508 180.805 289.635 180.48C289.761 180.156 289.819 179.81 289.805 179.463L286.445 78.8384C286.406 78.1269 286.094 77.4562 285.57 76.9612C285.046 76.4661 284.35 76.1836 283.622 76.1703H108.317C107.962 76.1675 107.61 76.2352 107.283 76.3694C106.956 76.5036 106.66 76.7014 106.413 76.9509C106.166 77.2003 105.973 77.4963 105.847 77.8207C105.72 78.1452 105.663 78.4914 105.677 78.8384L109.027 179.434C109.059 180.151 109.368 180.829 109.893 181.33C110.417 181.83 111.117 182.117 111.85 182.131Z" fill="white"/>
<g opacity="0.3">
<path d="M240.509 169.683H237.302V168.79H239.568L239.491 166.573L240.403 166.545L240.509 169.683Z" fill="#0066CC"/>
<path d="M232.205 169.684H227.107V168.743H232.205V169.684ZM222.01 169.684H216.96V168.743H222.058L222.01 169.684ZM211.814 169.684H206.717V168.743H211.814V169.684ZM201.619 169.684H196.522V168.743H201.6L201.619 169.684ZM191.434 169.684H186.326V168.743H191.434V169.684ZM181.238 169.684H176.141V168.743H181.238V169.684ZM171.043 169.684H165.946V168.743H171.043V169.684Z" fill="#0066CC"/>
<path d="M160.848 169.683H157.67L157.574 166.573L158.477 166.545L158.554 168.79H160.848V169.683Z" fill="#0066CC"/>
<path d="M157.44 161.585L157.277 156.596H158.237L158.4 161.585H157.44ZM157.114 151.608L156.941 146.619H157.853L158.016 151.608H157.114ZM156.778 141.631L156.614 136.643H157.517L157.69 141.631H156.778ZM156.442 131.663L156.278 126.675H157.19L157.354 131.663H156.442ZM156.115 121.686L155.942 116.698H156.854L157.018 121.686H156.115ZM155.779 111.7L155.616 106.721H156.518L156.691 111.71L155.779 111.7ZM155.443 101.733L155.28 96.7441H156.192L156.355 101.733H155.443Z" fill="#0066CC"/>
<path d="M155.078 91.7464L154.973 88.618H158.17V89.5105H155.914L155.981 91.7182L155.078 91.7464Z" fill="#0066CC"/>
<path d="M229.536 89.5114H224.438V88.618H229.536V89.5114ZM219.341 89.5114H214.243V88.618H219.341V89.5114ZM209.146 89.5114H204.048V88.618H209.146V89.5114ZM198.95 89.5114H193.853V88.618H198.95V89.5114ZM188.755 89.5114H183.658V88.618H188.755V89.5114ZM178.56 89.5114H173.462V88.618H178.56V89.5114ZM168.365 89.5114H163.267V88.618H168.365V89.5114Z" fill="#0066CC"/>
<path d="M236.995 91.7464L236.918 89.5105H234.634V88.618H237.802L237.907 91.7182L236.995 91.7464Z" fill="#0066CC"/>
<path d="M239.328 161.585L239.165 156.596H240.067L240.24 161.585H239.328ZM239.04 151.608L238.877 146.619H239.789L239.952 151.608H239.04ZM238.714 141.64L238.541 136.652H239.453L239.616 141.64H238.714ZM238.378 131.663L238.214 126.675H239.117L239.29 131.663H238.378ZM238.042 121.686L237.878 116.698H238.79L238.954 121.686H238.042ZM237.715 111.71L237.542 106.721H238.502L238.666 111.71H237.715ZM237.379 101.733L237.216 96.7441H238.118L238.291 101.733H237.379Z" fill="#0066CC"/>
</g>
<path d="M215.827 141.856H182.314C179.205 141.832 176.226 140.638 173.993 138.521C171.761 136.405 170.447 133.529 170.323 130.489C170.214 127.758 171.147 125.085 172.941 122.991C174.735 120.897 177.262 119.531 180.029 119.159C180.754 116.445 182.38 114.043 184.651 112.331C186.922 110.619 189.709 109.693 192.576 109.699C194.936 109.703 197.255 110.301 199.309 111.436C201.364 112.572 203.085 114.206 204.307 116.181C205.361 115.862 206.458 115.7 207.562 115.702C210.42 115.728 213.17 116.778 215.293 118.652C217.415 120.526 218.763 123.096 219.082 125.876C220.546 126.561 221.793 127.621 222.689 128.945C223.585 130.269 224.097 131.806 224.17 133.392C224.214 134.489 224.03 135.584 223.63 136.61C223.231 137.636 222.623 138.573 221.843 139.363C221.064 140.153 220.129 140.78 219.095 141.207C218.061 141.634 216.949 141.852 215.827 141.847V141.856ZM192.576 111.888C190.085 111.873 187.667 112.71 185.739 114.253C183.811 115.797 182.495 117.951 182.016 120.343L181.853 121.179L180.989 121.236C178.637 121.376 176.434 122.413 174.853 124.123C173.273 125.833 172.439 128.081 172.531 130.386C172.63 132.859 173.699 135.199 175.515 136.921C177.332 138.642 179.756 139.612 182.285 139.63H215.798C216.619 139.637 217.433 139.481 218.191 139.17C218.948 138.86 219.633 138.403 220.204 137.825C220.775 137.248 221.22 136.563 221.512 135.812C221.805 135.062 221.938 134.261 221.904 133.458C221.843 132.181 221.403 130.948 220.637 129.912C219.872 128.876 218.814 128.081 217.594 127.624L216.902 127.361V126.637C216.78 124.286 215.746 122.068 214.01 120.438C212.274 118.807 209.968 117.886 207.562 117.863C206.416 117.86 205.281 118.077 204.221 118.502L203.261 118.878L202.79 117.994C201.82 116.162 200.355 114.625 198.554 113.552C196.753 112.478 194.685 111.909 192.576 111.907V111.888Z" fill="#0066CC"/>
<path d="M206.17 131.222L196.925 122.457L188.266 131.222H193.334L193.642 140.278H201.408L201.101 131.222H206.17Z" fill="#0066CC"/>
<path d="M352.32 95.6357C353.203 96.8852 353.914 97.9374 354.643 99.1023C355.373 100.267 356.064 101.395 356.736 102.569C358.08 104.899 359.328 107.266 360.47 109.746C361.646 112.22 362.685 114.754 363.581 117.337C364.537 119.988 365.295 122.704 365.846 125.463L366.211 127.605L366.259 127.878L366.317 128.216C366.317 128.545 366.394 128.826 366.403 129.155C366.423 129.524 366.423 129.894 366.403 130.264L366.355 130.856L366.25 131.513C366.169 131.98 366.047 132.439 365.885 132.885C365.709 133.381 365.484 133.859 365.213 134.313C364.674 135.232 363.953 136.037 363.091 136.68C361.823 137.624 360.335 138.243 358.762 138.484C357.728 138.65 356.678 138.7 355.632 138.634C354.778 138.595 353.928 138.498 353.088 138.343C351.604 138.064 350.139 137.696 348.701 137.244C346.072 136.382 343.506 135.346 341.021 134.144C338.57 132.987 336.191 131.688 333.898 130.254L336.662 124.261C341.432 125.522 346.263 126.545 351.139 127.323C352.217 127.483 353.304 127.574 354.394 127.596C355.09 127.654 355.792 127.578 356.458 127.37C356.515 127.323 356.294 127.257 355.661 127.671C355.135 128.047 354.734 128.567 354.509 129.165C354.449 129.311 354.401 129.462 354.365 129.616L354.307 129.916C354.31 129.969 354.31 130.023 354.307 130.076V129.954V129.756L353.875 128.178C352.484 123.769 350.677 119.495 348.48 115.411C347.395 113.288 346.205 111.193 344.995 109.117C344.39 108.074 343.766 107.05 343.142 106.026C342.518 105.002 341.846 103.931 341.29 103.076L352.32 95.6357Z" fill="#FFB573"/>
<path d="M337.718 124.768L333.552 120.71L329.414 129.738C329.414 129.738 333.331 131.87 336.816 130.32L337.718 124.768Z" fill="#FFB573"/>
<path d="M327.398 117.469L324.326 125.097L329.405 129.738L333.552 120.71L327.398 117.469Z" fill="#FFB573"/>
<path d="M341.454 98.6571L261.526 84.8795L247.447 163.096L327.375 176.874L341.454 98.6571Z" fill="#0066CC"/>
<path opacity="0.6" d="M341.454 98.6571L261.526 84.8795L247.447 163.096L327.375 176.874L341.454 98.6571Z" fill="white"/>
<path d="M336.875 101.788L264.728 89.3518L252.019 159.954L324.166 172.39L336.875 101.788Z" fill="white"/>
<path opacity="0.3" d="M298.685 125.424C304.804 121.23 306.29 112.976 302.004 106.988C297.718 101 289.283 99.5465 283.164 103.741C277.046 107.935 275.56 116.189 279.846 122.177C284.132 128.164 292.566 129.618 298.685 125.424Z" fill="#0066CC"/>
<path opacity="0.2" d="M307.834 133.852L283.651 150.424L272.534 134.886L254.285 147.39L252.019 159.969L324.163 172.398L326.429 159.828L307.834 133.852Z" fill="#0066CC"/>
<path d="M311.798 67.1799C311.798 67.8093 311.491 68.326 311.069 68.3354C310.646 68.3448 310.301 67.8375 310.291 67.2174C310.282 66.5974 310.608 66.0713 311.021 66.0713C311.434 66.0713 311.789 66.5598 311.798 67.1799Z" fill="#263238"/>
<path d="M311.549 68.3166C310.824 70.242 309.836 72.0623 308.611 73.7278C309.054 74.0231 309.557 74.2206 310.086 74.3066C310.615 74.3926 311.157 74.365 311.674 74.2257L311.549 68.3166Z" fill="#FF5652"/>
<path d="M314.054 63.6663C313.955 63.6856 313.851 63.6653 313.766 63.6099C313.391 63.3311 312.951 63.1468 312.486 63.0731C312.02 62.9994 311.544 63.0386 311.098 63.1872C311.005 63.2246 310.9 63.2243 310.808 63.1864C310.715 63.1485 310.641 63.0761 310.603 62.9852C310.565 62.8943 310.565 62.7922 310.604 62.7015C310.643 62.6107 310.717 62.5388 310.81 62.5014C311.375 62.3173 311.977 62.2673 312.566 62.3555C313.156 62.4437 313.715 62.6676 314.198 63.0087C314.279 63.0638 314.335 63.148 314.353 63.243C314.371 63.338 314.35 63.4361 314.294 63.516C314.237 63.5944 314.151 63.6482 314.054 63.6663Z" fill="#263238"/>
<path d="M330.307 69.566C329.904 75.3342 330.365 86.974 334.867 90.2339C334.867 90.2339 333.763 94.9311 323.078 96.2557C311.338 97.6931 316.733 91.2391 316.733 91.2391C322.954 88.9468 322.195 84.3154 320.515 80.0785L330.307 69.566Z" fill="#FFB573"/>
<path d="M359.414 319.008H359.347C359.205 318.935 359.09 318.821 359.018 318.681C358.946 318.542 358.92 318.383 358.944 318.228C358.947 318.105 358.978 317.984 359.034 317.873C359.09 317.763 359.171 317.666 359.27 317.59C360.173 316.838 362.803 317.167 362.918 317.176C362.954 317.183 362.987 317.198 363.014 317.221C363.041 317.245 363.061 317.274 363.072 317.308C363.082 317.341 363.082 317.377 363.072 317.41C363.062 317.443 363.042 317.473 363.014 317.496C362.4 317.984 360.365 319.327 359.414 319.008ZM362.419 317.467C361.526 317.402 360.048 317.392 359.539 317.834C359.482 317.879 359.435 317.936 359.402 318.001C359.369 318.066 359.35 318.137 359.347 318.21C359.347 318.557 359.482 318.623 359.53 318.651C360 318.886 361.45 318.172 362.419 317.467Z" fill="#0066CC"/>
<path d="M361.565 317.232C360.605 316.922 359.645 316.387 359.501 315.842C359.463 315.709 359.473 315.567 359.529 315.441C359.585 315.314 359.683 315.21 359.808 315.147C359.926 315.068 360.06 315.015 360.201 314.99C360.341 314.966 360.486 314.971 360.624 315.006C361.786 315.241 362.995 317.157 363.053 317.232C363.072 317.26 363.082 317.293 363.082 317.326C363.082 317.36 363.072 317.392 363.053 317.42C363.038 317.45 363.015 317.474 362.986 317.491C362.957 317.508 362.923 317.516 362.89 317.514C362.437 317.481 361.991 317.386 361.565 317.232ZM360.682 315.4H360.547C360.458 315.377 360.364 315.374 360.273 315.39C360.181 315.406 360.095 315.442 360.019 315.494C359.818 315.626 359.847 315.729 359.856 315.776C360.01 316.274 361.507 316.969 362.515 317.148C362.074 316.415 361.441 315.812 360.682 315.4Z" fill="#0066CC"/>
<path d="M301.123 331.85C300.106 331.85 299.126 331.709 298.79 331.268C298.706 331.149 298.66 331.008 298.66 330.864C298.66 330.719 298.706 330.578 298.79 330.46C298.856 330.354 298.943 330.263 299.045 330.19C299.147 330.118 299.263 330.066 299.386 330.037C300.701 329.68 303.475 331.221 303.59 331.286C303.624 331.307 303.65 331.336 303.665 331.372C303.681 331.407 303.685 331.446 303.677 331.484C303.672 331.52 303.655 331.554 303.629 331.581C303.603 331.608 303.57 331.627 303.533 331.634C302.737 331.772 301.931 331.844 301.123 331.85ZM299.866 330.347C299.745 330.332 299.622 330.332 299.501 330.347C299.425 330.364 299.353 330.396 299.29 330.441C299.228 330.486 299.175 330.544 299.136 330.61C299.002 330.835 299.05 330.948 299.136 331.014C299.501 331.512 301.507 331.521 302.976 331.324C302.015 330.8 300.958 330.468 299.866 330.347Z" fill="#0066CC"/>
<path d="M303.514 331.625H303.437C302.477 331.211 300.557 329.53 300.73 328.656C300.73 328.449 300.912 328.196 301.43 328.139C301.616 328.121 301.804 328.14 301.982 328.195C302.16 328.25 302.325 328.34 302.467 328.459C303.475 329.267 303.696 331.352 303.696 331.446C303.699 331.477 303.694 331.509 303.681 331.537C303.667 331.565 303.646 331.589 303.619 331.606C303.588 331.625 303.55 331.632 303.514 331.625ZM301.594 328.478H301.44C301.104 328.478 301.085 328.647 301.075 328.684C300.989 329.21 302.275 330.563 303.245 331.099C303.159 330.218 302.797 329.384 302.208 328.712C302.032 328.57 301.812 328.491 301.584 328.487L301.594 328.478Z" fill="#0066CC"/>
<path d="M312.221 331.446H304.301L303.514 313.503H311.434L312.221 331.446Z" fill="#FFB573"/>
<path d="M371.443 315.081L364.099 317.054L354.701 300.228L362.045 298.256L371.443 315.081Z" fill="#FFB573"/>
<path d="M362.995 316.274L370.925 312.3C371.066 312.233 371.226 312.214 371.379 312.247C371.532 312.279 371.669 312.361 371.77 312.479L376.368 317.909C376.478 318.042 376.556 318.199 376.596 318.366C376.637 318.533 376.638 318.707 376.6 318.875C376.562 319.043 376.486 319.2 376.378 319.335C376.27 319.47 376.132 319.58 375.974 319.656C373.19 320.99 371.76 321.535 368.294 323.254C366.154 324.325 359.779 328.966 356.563 329.83C353.347 330.694 352.099 327.641 353.338 327.012C357.401 324.968 360.528 321.499 362.093 317.298C362.253 316.859 362.575 316.494 362.995 316.274Z" fill="#263238"/>
<path d="M304.32 330.554H312.96C313.116 330.554 313.268 330.607 313.39 330.702C313.512 330.798 313.597 330.931 313.632 331.08L315.197 337.975C315.236 338.142 315.237 338.315 315.197 338.481C315.158 338.648 315.08 338.803 314.97 338.936C314.859 339.068 314.72 339.174 314.561 339.246C314.402 339.317 314.229 339.352 314.054 339.347C310.934 339.3 306.422 339.122 302.534 339.122C297.946 339.122 293.99 339.366 288.614 339.366C285.36 339.366 284.458 336.144 285.821 335.852C292.013 334.528 297.072 334.387 302.429 331.155C302.991 330.788 303.645 330.58 304.32 330.554Z" fill="#263238"/>
<path d="M338.381 104.589C339.206 106.665 340.118 108.694 341.04 110.601C342.614 113.898 344.189 116.773 345.331 118.755C346.349 120.55 347.021 121.574 347.021 121.574L364.301 113.175C364.301 113.175 357.331 93.5689 350.054 91.38C342.614 89.2475 334.646 95.2411 338.381 104.589Z" fill="#263238"/>
<path opacity="0.2" d="M346.051 106.524C344.544 107.604 343.469 110.526 342.701 113.955C343.661 115.834 344.621 117.478 345.331 118.755C346.349 120.55 347.021 121.574 347.021 121.574L348.998 120.634C348.96 115.788 347.959 110.996 346.051 106.524Z" fill="black"/>
<path d="M301.805 117.093C301.805 119.723 301.872 122.626 302.016 125.829C302.41 134.519 303.379 145.351 305.232 158.813H347.587C347.885 152.453 343.795 121.405 350.074 91.4176C345.387 90.5391 340.648 89.9555 335.885 89.6703C329.887 89.3319 323.873 89.3319 317.875 89.6703C313.765 90.0842 309.692 90.8034 305.693 91.8216C305.693 91.8216 301.795 96.1336 301.805 117.093Z" fill="#263238"/>
<path d="M312.701 104.786C312.071 106.075 311.369 107.33 310.598 108.544C309.898 109.652 309.187 110.723 308.458 111.757C306.998 113.823 305.472 115.815 303.869 117.76C300.642 121.707 297.066 125.369 293.184 128.704C291.114 130.48 288.895 132.083 286.55 133.495L285.59 134.04L285.341 134.172L284.995 134.341L284.294 134.67C283.393 135.086 282.446 135.401 281.472 135.609C279.747 135.948 277.981 136.037 276.23 135.872C273.308 135.532 270.469 134.696 267.84 133.401C266.624 132.818 265.447 132.159 264.317 131.429C263.172 130.703 262.078 129.902 261.043 129.033L264.442 123.396C268.598 124.467 273.283 125.426 276.509 124.975C277.176 124.912 277.826 124.734 278.429 124.449C278.627 124.354 278.814 124.237 278.986 124.101L279.072 124.016H279.13L279.264 123.913L279.85 123.518C281.493 122.293 283.052 120.963 284.515 119.535C287.649 116.431 290.565 113.123 293.242 109.633C294.614 107.877 295.939 106.073 297.216 104.26C297.84 103.32 298.464 102.456 299.04 101.564C299.616 100.671 300.192 99.7599 300.49 99.1868L312.701 104.786Z" fill="#FFB573"/>
<path d="M266.131 124.176L258.826 120.785L258.163 130.377C258.163 130.377 263.846 131.316 266.851 129.165L266.131 124.176Z" fill="#FFB573"/>
<path d="M249.619 122.419L252.432 129.728L258.163 130.377L258.826 120.785L249.619 122.419Z" fill="#FFB573"/>
<path d="M317.933 99.7034C317.683 107.116 302.093 124.176 302.093 124.176L285.629 113.673C285.629 113.673 290.88 104.091 297.6 97.1669C307.862 86.739 318.23 90.8162 317.933 99.7034Z" fill="#263238"/>
<path opacity="0.2" d="M303.514 313.503L303.917 322.756H311.846L311.443 313.503H303.514Z" fill="black"/>
<path opacity="0.2" d="M362.045 298.256L354.701 300.238L359.549 308.909L366.893 306.927L362.045 298.256Z" fill="black"/>
<path d="M333.12 65.4231C332.803 73.1078 333.024 77.636 329.146 81.6474C323.309 87.6881 313.555 84.3718 311.52 76.7529C309.686 69.8855 310.512 58.4712 318.125 55.2583C319.8 54.5406 321.635 54.2544 323.455 54.4269C325.275 54.5995 327.019 55.225 328.522 56.2439C330.026 57.2628 331.237 58.6412 332.042 60.248C332.847 61.8547 333.218 63.6363 333.12 65.4231Z" fill="#FFB573"/>
<path d="M317.443 69.0868C314.611 67.114 311.837 63.0462 312.058 60.0212C309.437 59.9179 307.68 55.6904 309.12 52.609C310.022 54.5912 313.142 53.1351 314.362 51.5662C313.709 50.0537 313.814 47.5454 318.298 45.7698C317.923 47.0475 318.115 49.1988 322.618 47.6487C328.08 45.7698 337.68 47.0287 334.867 53.3887C338.707 54.0745 343.709 61.8437 339.466 65.9303C335.222 70.0169 334.349 76.6212 330.72 77.2976C327.091 77.974 317.654 78.2088 317.443 69.0868Z" fill="#263238"/>
<path d="M332.314 53.1351C333.841 52.5134 335.537 52.4135 337.129 52.8515C338.721 53.2896 340.116 54.2401 341.088 55.5495C338.326 54.2592 335.358 53.4425 332.314 53.1351Z" fill="#263238"/>
<path d="M319.507 68.7581C319.428 70.4653 318.777 72.0995 317.654 73.4084C316.157 75.1182 314.515 74.1224 314.179 72.1025C313.882 70.2894 314.304 67.208 316.166 66.2404C318.029 65.2728 319.574 66.7007 319.507 68.7581Z" fill="#FFB573"/>
<path d="M320.256 158.814C320.256 158.814 316.522 217.463 323.606 239.089C334.819 273.342 354.826 308.336 354.826 308.336L369.13 304.127C369.13 304.127 353.395 267.188 348.221 238.366C343.574 212.447 347.587 180.017 347.587 158.842L320.256 158.814Z" fill="#0066CC"/>
<path opacity="0.2" d="M319.68 171.919C323.674 170.782 326.794 171.214 327.6 174.69C329.712 183.775 323.376 207.74 320.218 218.703C318.912 202.92 319.21 184.132 319.68 171.919Z" fill="black"/>
<path d="M350.784 304.325C350.726 304.325 354.518 308.655 354.518 308.655L370.147 304.052L368.16 298.885L350.784 304.325Z" fill="#263238"/>
<path d="M305.28 158.814C305.28 158.814 293.347 208.294 292.502 231.931C291.542 258.442 301.018 320.962 301.018 320.962H314.458C314.458 320.962 316.109 257.953 316.704 233.809C317.357 207.505 333.139 158.814 333.139 158.814H305.28Z" fill="#0066CC"/>
<path d="M298.387 315.739C298.33 315.739 299.146 321.188 299.146 321.188H315.466L315.907 316.321L298.387 315.739Z" fill="#263238"/>
<path d="M311.155 87.8571C312.979 87.237 326.813 85.5178 336.854 86.0439C342.614 86.3446 345.821 86.9834 348.163 88.0638C350.506 89.1441 346.31 94.7526 344.371 95.4384C345.158 97.5803 340.79 100.314 338.304 101.611C337.344 103.621 327.485 105.481 321.725 101.16C317.299 97.834 305.981 89.6138 311.155 87.8571Z" fill="#0066CC"/>
</svg>
