<svg width="11" height="14" viewBox="0 0 11 14" fill="none" xmlns="http://www.w3.org/2000/svg">
<path fill-rule="evenodd" clip-rule="evenodd" d="M9.92775 6.67326C9.98761 6.71613 10.0351 6.76706 10.0675 6.82313C10.0999 6.87919 10.1166 6.9393 10.1166 7C10.1166 7.0607 10.0999 7.12081 10.0675 7.17688C10.0351 7.23294 9.98761 7.28387 9.92775 7.32674L2.21515 12.8647C2.09446 12.9513 1.93078 13 1.7601 13C1.58943 13 1.42575 12.9513 1.30506 12.8647C1.18438 12.778 1.11658 12.6605 1.11658 12.5379C1.11658 12.4154 1.18438 12.2978 1.30506 12.2112L8.56391 7L1.30506 1.78881C1.18438 1.70216 1.11658 1.58463 1.11658 1.46208C1.11658 1.33953 1.18438 1.22199 1.30506 1.13534C1.42575 1.04868 1.58943 1 1.76011 1C1.93078 1 2.09447 1.04868 2.21515 1.13534L9.92775 6.67326Z" fill="#0066CC" stroke="#0066CC"/>
</svg>
