<svg width="11" height="14" viewBox="0 0 11 14" fill="none" xmlns="http://www.w3.org/2000/svg">
<g id="Vector">
<path id="Vector_2" fill-rule="evenodd" clip-rule="evenodd" d="M1.3054 7.32674C1.24554 7.28387 1.19806 7.23294 1.16566 7.17687C1.13325 7.12081 1.11658 7.0607 1.11658 7C1.11658 6.9393 1.13325 6.87919 1.16566 6.82312C1.19806 6.76706 1.24554 6.71613 1.3054 6.67326L9.018 1.13534C9.13869 1.04868 9.30237 1 9.47305 1C9.64372 1 9.80741 1.04868 9.92809 1.13534C10.0488 1.22199 10.1166 1.33952 10.1166 1.46207C10.1166 1.58462 10.0488 1.70216 9.92809 1.78881L2.66924 7L9.92809 12.2112C10.0488 12.2978 10.1166 12.4154 10.1166 12.5379C10.1166 12.6605 10.0488 12.778 9.92809 12.8647C9.80741 12.9513 9.64372 13 9.47305 13C9.30237 13 9.13869 12.9513 9.018 12.8647L1.3054 7.32674Z" fill="#0066CC" stroke="#B7B7B7"/>
</g>
</svg>
