<svg width="32" height="32" viewBox="0 0 32 32" fill="none" xmlns="http://www.w3.org/2000/svg">
<path id="Vector" d="M15.9999 0C15.6479 0 15.2999 0.0120001 14.9539 0.0340002L15.0819 2.03001C15.6932 1.9905 16.3065 1.9905 16.9179 2.03001L17.0459 0.0340002C16.6977 0.0114225 16.3488 8.32245e-05 15.9999 0ZM12.8799 0.304002C12.1878 0.442003 11.5118 0.624004 10.8558 0.844005L11.4978 2.74002C12.0718 2.54402 12.6618 2.38601 13.2659 2.26601L12.8799 0.306002V0.304002ZM21.1439 0.846005C20.4825 0.621771 19.807 0.441378 19.1219 0.306002L18.7339 2.26601C19.3379 2.38601 19.9279 2.54602 20.5019 2.74002L21.1439 0.846005ZM24.8899 2.69602C24.3095 2.3075 23.7042 1.95742 23.0779 1.64801L22.1919 3.44002C22.7419 3.71202 23.2719 4.02002 23.7779 4.35803L24.8899 2.69602ZM8.91982 1.64801C8.29182 1.95801 7.68781 2.30801 7.10981 2.69602L8.22182 4.35603C8.73013 4.01674 9.25992 3.71076 9.80783 3.44002L8.91982 1.64801ZM5.44979 3.97002C4.92579 4.43003 4.42978 4.92603 3.96978 5.45003L5.47379 6.77004C5.8778 6.31004 6.3098 5.87804 6.7698 5.47403L5.44979 3.97002ZM28.03 5.45003C27.5692 4.92515 27.0748 4.43077 26.55 3.97002L25.2299 5.47403C25.69 5.87804 26.124 6.31004 26.526 6.77004L28.03 5.45003ZM30.352 8.92006C30.0426 8.29445 29.6925 7.68982 29.304 7.11004L27.644 8.22205C27.982 8.72805 28.288 9.25806 28.56 9.80806L30.352 8.92006ZM2.69577 7.11004C2.30777 7.68805 1.95577 8.29205 1.64776 8.92206L3.43978 9.80806C3.71178 9.25806 4.01978 8.72805 4.35778 8.22205L2.69577 7.11004ZM0.845757 10.8561C0.621516 11.5175 0.441124 12.1929 0.305752 12.8781L2.26577 13.2661C2.38577 12.6621 2.54577 12.0721 2.73977 11.4981L0.845757 10.8561ZM31.696 12.8801C31.5607 12.1943 31.3803 11.5181 31.156 10.8561L29.26 11.4981C29.456 12.0721 29.614 12.6621 29.734 13.2661L31.694 12.8781L31.696 12.8801ZM0.0337503 14.9541C-0.0112501 15.6507 -0.0112501 16.3495 0.0337503 17.0461L2.02977 16.9181C1.99025 16.3067 1.99025 15.6935 2.02977 15.0821L0.0337503 14.9541ZM32 16.0001C31.9999 15.6512 31.9886 15.3023 31.966 14.9541L29.97 15.0821C30.0095 15.6935 30.0095 16.3067 29.97 16.9181L31.966 17.0461C31.9886 16.6979 31.9999 16.349 32 16.0001ZM0.303752 19.1201C0.441753 19.8121 0.623755 20.4881 0.843757 21.1441L2.73977 20.5021C2.54306 19.9239 2.38472 19.3332 2.26577 18.7341L0.305752 19.1221L0.303752 19.1201ZM31.154 21.1441C31.378 20.4881 31.558 19.8121 31.694 19.1221L29.734 18.7341C29.614 19.3381 29.454 19.9281 29.26 20.5021L31.154 21.1441ZM1.64776 23.0801C1.95725 23.7057 2.30733 24.3103 2.69577 24.8902L4.35578 23.7781C4.01615 23.27 3.71016 22.7402 3.43978 22.1921L1.64776 23.0781V23.0801ZM29.304 24.8902C29.692 24.3122 30.044 23.7081 30.352 23.0781L28.56 22.1921C28.288 22.7421 27.98 23.2721 27.642 23.7781L29.304 24.8902ZM3.96978 26.5502C4.42978 27.0742 4.92579 27.5702 5.44979 28.0302L6.7698 26.5262C6.31014 26.1227 5.87722 25.6898 5.47379 25.2302L3.96978 26.5502ZM26.55 28.0302C27.074 27.5702 27.57 27.0742 28.03 26.5502L26.526 25.2302C26.124 25.6902 25.69 26.1242 25.2299 26.5262L26.55 28.0302ZM23.0799 30.3522C23.7079 30.0422 24.3119 29.6922 24.8899 29.3042L23.7779 27.6442C23.2696 27.9835 22.7398 28.2894 22.1919 28.5602L23.0779 30.3522H23.0799ZM7.10981 29.3042C7.68781 29.6922 8.29182 30.0442 8.92182 30.3522L9.80783 28.5602C9.25967 28.2892 8.72986 27.9825 8.22182 27.6422L7.10981 29.3042ZM10.8558 31.1542C11.5118 31.3782 12.1878 31.5582 12.8779 31.6942L13.2659 29.7342C12.6667 29.6152 12.0761 29.4568 11.4978 29.2602L10.8558 31.1542ZM19.1199 31.6962C19.8057 31.5609 20.4819 31.3805 21.1439 31.1562L20.5019 29.2602C19.9236 29.4568 19.333 29.6152 18.7339 29.7342L19.1219 31.6942L19.1199 31.6962ZM14.9539 31.9662C15.6505 32.0113 16.3493 32.0113 17.0459 31.9662L16.9179 29.9702C16.3065 30.0097 15.6932 30.0097 15.0819 29.9702L14.9539 31.9662ZM8.99982 15.0001C8.7346 15.0001 8.48025 15.1055 8.29271 15.293C8.10517 15.4805 7.99981 15.7349 7.99981 16.0001C7.99981 16.2653 8.10517 16.5197 8.29271 16.7072C8.48025 16.8947 8.7346 17.0001 8.99982 17.0001H22.9999C23.2652 17.0001 23.5195 16.8947 23.707 16.7072C23.8946 16.5197 23.9999 16.2653 23.9999 16.0001C23.9999 15.7349 23.8946 15.4805 23.707 15.293C23.5195 15.1055 23.2652 15.0001 22.9999 15.0001H8.99982Z" fill="#0066CC"/>
</svg>
