<svg width="17" height="17" viewBox="0 0 17 17" fill="none" xmlns="http://www.w3.org/2000/svg">
<path id="Vector" d="M11.94 10.8432C12.9082 9.52177 13.3419 7.8834 13.1542 6.25589C12.9666 4.62838 12.1714 3.13176 10.9278 2.06544C9.68417 0.99912 8.08386 0.441745 6.44701 0.504825C4.81016 0.567904 3.25748 1.24679 2.0996 2.40565C0.941731 3.56452 0.264056 5.1179 0.202156 6.75503C0.140257 8.39215 0.698698 9.99229 1.76576 11.2353C2.83281 12.4783 4.3298 13.2725 5.95721 13.4591C7.58462 13.6456 9.22245 13.2107 10.543 12.2414H10.542C10.572 12.2814 10.604 12.3194 10.64 12.3564L14.4899 16.2068C14.6774 16.3944 14.9317 16.4999 15.197 16.5C15.4623 16.5001 15.7167 16.3948 15.9043 16.2073C16.092 16.0197 16.1974 15.7653 16.1975 15.5C16.1976 15.2348 16.0923 14.9803 15.9048 14.7926L12.055 10.9422C12.0192 10.906 11.9808 10.8736 11.94 10.8432ZM12.198 6.99882C12.198 7.72116 12.0557 8.43643 11.7793 9.10379C11.5029 9.77115 11.0978 10.3775 10.5871 10.8883C10.0764 11.3991 9.47011 11.8043 8.80284 12.0807C8.13558 12.3571 7.42041 12.4994 6.69816 12.4994C5.97592 12.4994 5.26075 12.3571 4.59348 12.0807C3.92622 11.8043 3.31993 11.3991 2.80922 10.8883C2.29852 10.3775 1.89341 9.77115 1.61702 9.10379C1.34063 8.43643 1.19837 7.72116 1.19837 6.99882C1.19837 5.53998 1.77781 4.14089 2.80922 3.10933C3.84063 2.07777 5.23953 1.49825 6.69816 1.49825C8.1568 1.49825 9.55569 2.07777 10.5871 3.10933C11.6185 4.14089 12.198 5.53998 12.198 6.99882Z" fill="#B7B7B7"/>
</svg>
