<svg width="11" height="10" viewBox="0 0 11 10" fill="none" xmlns="http://www.w3.org/2000/svg">
<path id="Vector" d="M7.97459 0.0918046C8.00361 0.0627038 8.0381 0.0396156 8.07606 0.0238622C8.11402 0.0081089 8.15472 0 8.19583 0C8.23693 0 8.27763 0.0081089 8.31559 0.0238622C8.35356 0.0396156 8.38804 0.0627038 8.41707 0.0918046L10.292 1.96672C10.3211 1.99575 10.3442 2.03023 10.3599 2.0682C10.3757 2.10616 10.3838 2.14686 10.3838 2.18796C10.3838 2.22907 10.3757 2.26976 10.3599 2.30773C10.3442 2.34569 10.3211 2.38018 10.292 2.4092L4.04226 8.65893C4.01227 8.68871 3.97655 8.7121 3.93726 8.72768L0.812399 9.97762C0.755612 10.0004 0.693402 10.0059 0.633482 9.99363C0.573562 9.98133 0.518566 9.95173 0.475314 9.90847C0.432062 9.86522 0.402455 9.81023 0.390163 9.75031C0.377872 9.69039 0.383436 9.62818 0.406167 9.57139L1.65611 6.44653C1.67169 6.40724 1.69508 6.37152 1.72486 6.34153L7.97459 0.0918046ZM7.38774 1.56299L8.8208 2.99605L9.62889 2.18796L8.19583 0.754901L7.38774 1.56299ZM8.37894 3.43791L6.94588 2.00485L2.88356 6.06717V6.25029H3.19604C3.27892 6.25029 3.3584 6.28321 3.41701 6.34181C3.47561 6.40041 3.50853 6.4799 3.50853 6.56277V6.87526H3.82102C3.90389 6.87526 3.98338 6.90818 4.04198 6.96678C4.10058 7.02539 4.1335 7.10487 4.1335 7.18774V7.50023H4.31662L8.37894 3.43791ZM2.27859 6.67214L2.21234 6.73839L1.25738 9.12641L3.6454 8.17145L3.71165 8.1052C3.65204 8.08293 3.60065 8.04299 3.56435 7.99072C3.52805 7.93846 3.50858 7.87635 3.50853 7.81272V7.50023H3.19604C3.11317 7.50023 3.03369 7.46731 2.97508 7.40871C2.91648 7.3501 2.88356 7.27062 2.88356 7.18774V6.87526H2.57107C2.50744 6.87521 2.44533 6.85574 2.39307 6.81944C2.3408 6.78314 2.30086 6.73175 2.27859 6.67214Z" fill="#0066CC"/>
</svg>
