<svg width="8" height="10" viewBox="0 0 8 10" fill="none" xmlns="http://www.w3.org/2000/svg">
<g id="Group 50">
<g id="Group 61">
<path id="Vector" d="M1.99996 2.5C1.91155 2.5 1.82677 2.53292 1.76426 2.59153C1.70174 2.65013 1.66663 2.72962 1.66663 2.8125C1.66663 2.89538 1.70174 2.97487 1.76426 3.03347C1.82677 3.09208 1.91155 3.125 1.99996 3.125H5.99996C6.08836 3.125 6.17315 3.09208 6.23566 3.03347C6.29817 2.97487 6.33329 2.89538 6.33329 2.8125C6.33329 2.72962 6.29817 2.65013 6.23566 2.59153C6.17315 2.53292 6.08836 2.5 5.99996 2.5H1.99996ZM1.66663 4.0625C1.66663 3.97962 1.70174 3.90013 1.76426 3.84153C1.82677 3.78292 1.91155 3.75 1.99996 3.75H5.99996C6.08836 3.75 6.17315 3.78292 6.23566 3.84153C6.29817 3.90013 6.33329 3.97962 6.33329 4.0625C6.33329 4.14538 6.29817 4.22487 6.23566 4.28347C6.17315 4.34208 6.08836 4.375 5.99996 4.375H1.99996C1.91155 4.375 1.82677 4.34208 1.76426 4.28347C1.70174 4.22487 1.66663 4.14538 1.66663 4.0625ZM1.99996 5C1.91155 5 1.82677 5.03292 1.76426 5.09153C1.70174 5.15013 1.66663 5.22962 1.66663 5.3125C1.66663 5.39538 1.70174 5.47487 1.76426 5.53347C1.82677 5.59208 1.91155 5.625 1.99996 5.625H5.99996C6.08836 5.625 6.17315 5.59208 6.23566 5.53347C6.29817 5.47487 6.33329 5.39538 6.33329 5.3125C6.33329 5.22962 6.29817 5.15013 6.23566 5.09153C6.17315 5.03292 6.08836 5 5.99996 5H1.99996ZM1.99996 6.25C1.91155 6.25 1.82677 6.28292 1.76426 6.34153C1.70174 6.40013 1.66663 6.47962 1.66663 6.5625C1.66663 6.64538 1.70174 6.72487 1.76426 6.78347C1.82677 6.84208 1.91155 6.875 1.99996 6.875H3.99996C4.08836 6.875 4.17315 6.84208 4.23566 6.78347C4.29817 6.72487 4.33329 6.64538 4.33329 6.5625C4.33329 6.47962 4.29817 6.40013 4.23566 6.34153C4.17315 6.28292 4.08836 6.25 3.99996 6.25H1.99996Z" fill="#333399"/>
<path id="Vector_2" d="M0 1.25C0 0.918479 0.140476 0.600537 0.390524 0.366117C0.640573 0.131696 0.979711 0 1.33333 0L6.66667 0C7.02029 0 7.35943 0.131696 7.60948 0.366117C7.85952 0.600537 8 0.918479 8 1.25V8.75C8 9.08152 7.85952 9.39946 7.60948 9.63388C7.35943 9.8683 7.02029 10 6.66667 10H1.33333C0.979711 10 0.640573 9.8683 0.390524 9.63388C0.140476 9.39946 0 9.08152 0 8.75V1.25ZM6.66667 0.625H1.33333C1.15652 0.625 0.986953 0.690848 0.861929 0.808058C0.736905 0.925268 0.666667 1.08424 0.666667 1.25V8.75C0.666667 8.91576 0.736905 9.07473 0.861929 9.19194C0.986953 9.30915 1.15652 9.375 1.33333 9.375H6.66667C6.84348 9.375 7.01305 9.30915 7.13807 9.19194C7.2631 9.07473 7.33333 8.91576 7.33333 8.75V1.25C7.33333 1.08424 7.2631 0.925268 7.13807 0.808058C7.01305 0.690848 6.84348 0.625 6.66667 0.625Z" fill="#333399"/>
</g>
</g>
</svg>
